<?xml version="1.0" encoding="UTF-8" standalone="no"?><!DOCTYPE svg PUBLIC "-//W3C//DTD SVG 1.1//EN" "http://www.w3.org/Graphics/SVG/1.1/DTD/svg11.dtd"><svg width="100%" height="100%" viewBox="0 0 113 113" version="1.1" xmlns="http://www.w3.org/2000/svg" xmlns:xlink="http://www.w3.org/1999/xlink" xml:space="preserve" xmlns:serif="http://www.serif.com/" style="fill-rule:evenodd;clip-rule:evenodd;stroke-linejoin:round;stroke-miterlimit:2;"><path d="M7.581,49.165c-0.105,0.615 0.382,1.178 1.006,1.178l6.783,0c0.483,0 0.888,-0.344 0.981,-0.816c3.155,-15.948 15.966,-28.577 32.166,-31.709c0.475,-0.091 0.818,-0.498 0.818,-0.981l0,-6.72c0,-0.622 -0.559,-1.109 -1.173,-1.008c-20.778,3.43 -37.137,19.583 -40.581,40.056Z" style="fill:#37474f;fill-rule:nonzero;"/><path d="M97.394,62.925c-0.492,0 -0.9,0.356 -0.983,0.84c-2.847,16.552 -16.031,29.694 -32.764,32.741c-0.479,0.085 -0.829,0.494 -0.829,0.98l0,6.728c0,0.617 0.554,1.103 1.164,1.007c21.365,-3.3 38.143,-20.002 41.238,-41.139c0.09,-0.607 -0.394,-1.157 -1.012,-1.157l-6.814,0Z" style="fill:#37474f;fill-rule:nonzero;"/><path d="M81.732,62.925c-0.455,0 -0.842,0.308 -0.964,0.743c-2.309,8.298 -8.88,14.905 -17.226,17.389c-0.426,0.127 -0.724,0.512 -0.724,0.958l0,6.75c0,0.646 0.602,1.14 1.228,0.995c12.799,-2.946 22.731,-12.91 25.481,-25.617c0.134,-0.628 -0.359,-1.218 -0.997,-1.218l-6.798,0Z" style="fill:#78909c;fill-rule:nonzero;"/><path d="M43.348,57.362c0,-7.21 5.846,-13.055 13.055,-13.055c7.21,0 13.054,5.845 13.054,13.055c0,7.21 -5.844,13.054 -13.054,13.054c-7.209,0 -13.055,-5.844 -13.055,-13.054Zm12.879,54.506l0.003,0c1.127,0 2.192,-0.432 2.992,-1.221c0.807,-0.795 1.251,-1.854 1.251,-2.98l0,-33.062c6.67,-1.572 11.898,-6.723 13.49,-13.299l33.92,-0.054c2.349,-0.003 4.259,-1.895 4.259,-4.216c0,-1.129 -0.447,-2.192 -1.26,-2.987c-0.801,-0.789 -1.867,-1.223 -3.011,-1.223l-33.908,0.066c-1.595,-6.569 -6.82,-11.706 -13.49,-13.261l0,-34.498c0,-2.314 -1.902,-4.195 -4.257,-4.195c-2.334,0.014 -4.237,1.903 -4.237,4.216l0,34.491c-6.656,1.578 -11.88,6.73 -13.47,13.297l-33.612,0.066c-2.335,0.005 -4.234,1.887 -4.234,4.2c0,1.124 0.446,2.181 1.249,2.974c0.799,0.787 1.858,1.221 2.993,1.221l33.606,-0.052c1.593,6.56 6.812,11.698 13.468,13.258l0,33.052c0,2.318 1.906,4.204 4.248,4.207Z" style="fill:#37474f;fill-rule:nonzero;"/><path d="M63.977,9.004c-0.606,-0.091 -1.159,0.395 -1.159,1.01l0,6.721c0,0.487 0.353,0.897 0.831,0.982c16.502,2.962 29.556,15.755 32.642,31.982c0.088,0.477 0.494,0.824 0.981,0.824l6.837,0c0.621,0 1.108,-0.557 1.008,-1.171c-3.351,-20.807 -20.002,-37.138 -41.14,-40.348Z" style="fill:#37474f;fill-rule:nonzero;"/><path d="M62.818,25.453l0,6.759c0,0.449 0.3,0.832 0.726,0.959c8.106,2.391 14.533,8.68 17.009,16.636c0.131,0.423 0.513,0.716 0.954,0.716l6.868,0c0.646,0 1.143,-0.608 0.991,-1.238c-2.965,-12.354 -12.77,-21.97 -25.321,-24.826c-0.628,-0.143 -1.227,0.35 -1.227,0.994Z" style="fill:#78909c;fill-rule:nonzero;"/><path d="M31.935,64.362c-0.131,-0.423 -0.512,-0.717 -0.956,-0.717l-6.83,0c-0.646,0 -1.142,0.604 -0.993,1.233c2.955,12.434 12.845,22.116 25.498,24.936c0.626,0.141 1.221,-0.354 1.221,-0.994l0,-6.73c0,-0.45 -0.301,-0.835 -0.734,-0.96c-8.21,-2.359 -14.729,-8.723 -17.206,-16.768Z" style="fill:#78909c;fill-rule:nonzero;"/><path d="M16.294,64.468c-0.087,-0.475 -0.496,-0.823 -0.983,-0.823l-6.794,0c-0.62,0 -1.107,0.557 -1.009,1.168c3.325,20.839 20.026,37.242 41.205,40.438c0.612,0.091 1.162,-0.392 1.162,-1.008l0,-6.72c0,-0.49 -0.352,-0.899 -0.835,-0.983c-16.564,-2.938 -29.681,-15.794 -32.746,-32.072Z" style="fill:#37474f;fill-rule:nonzero;"/><path d="M48.097,24.568c-12.272,2.98 -21.861,12.436 -24.873,24.53c-0.159,0.632 0.339,1.245 0.989,1.245l6.871,0c0.438,0 0.817,-0.288 0.954,-0.704c2.492,-7.734 8.725,-13.875 16.585,-16.34c0.423,-0.132 0.712,-0.511 0.712,-0.954l0,-6.785c0,-0.65 -0.61,-1.145 -1.238,-0.992Z" style="fill:#78909c;fill-rule:nonzero;"/><path d="M43.348,57.362c0,7.21 5.846,13.054 13.055,13.054c7.21,0 13.054,-5.844 13.054,-13.054c0,-7.21 -5.844,-13.055 -13.054,-13.055c-7.209,0 -13.055,5.845 -13.055,13.055Z" style="fill:#78909c;fill-rule:nonzero;"/></svg>