<?xml version="1.0" encoding="UTF-8" standalone="no"?><!DOCTYPE svg PUBLIC "-//W3C//DTD SVG 1.1//EN" "http://www.w3.org/Graphics/SVG/1.1/DTD/svg11.dtd"><svg width="100%" height="100%" viewBox="0 0 112 111" version="1.1" xmlns="http://www.w3.org/2000/svg" xmlns:xlink="http://www.w3.org/1999/xlink" xml:space="preserve" xmlns:serif="http://www.serif.com/" style="fill-rule:evenodd;clip-rule:evenodd;stroke-linejoin:round;stroke-miterlimit:2;"><path d="M6.918,48.227c-0.105,0.615 0.382,1.178 1.005,1.178l6.783,0c0.484,0 0.889,-0.344 0.981,-0.816c3.156,-15.948 15.966,-28.577 32.166,-31.709c0.476,-0.091 0.818,-0.498 0.818,-0.981l0,-6.72c0,-0.622 -0.559,-1.109 -1.172,-1.008c-20.778,3.43 -37.137,19.583 -40.581,40.056Z" style="fill:#37474f;fill-rule:nonzero;"/><path d="M96.731,61.987c-0.492,0 -0.9,0.356 -0.983,0.84c-2.848,16.552 -16.031,29.694 -32.764,32.741c-0.479,0.085 -0.83,0.494 -0.83,0.981l0,6.727c0,0.617 0.555,1.103 1.165,1.007c21.365,-3.3 38.143,-20.002 41.237,-41.139c0.091,-0.607 -0.394,-1.157 -1.011,-1.157l-6.814,0Z" style="fill:#37474f;fill-rule:nonzero;"/><path d="M63.314,8.066c-0.607,-0.091 -1.16,0.395 -1.16,1.01l0,6.721c0,0.487 0.354,0.897 0.832,0.982c16.502,2.962 29.556,15.755 32.642,31.982c0.088,0.477 0.494,0.824 0.981,0.824l6.837,0c0.621,0 1.108,-0.557 1.008,-1.171c-3.352,-20.807 -20.003,-37.138 -41.14,-40.348Z" style="fill:#37474f;fill-rule:nonzero;"/><path d="M15.631,63.53c-0.088,-0.475 -0.496,-0.823 -0.983,-0.823l-6.794,0c-0.621,0 -1.107,0.557 -1.01,1.168c3.326,20.839 20.027,37.242 41.206,40.438c0.612,0.091 1.162,-0.392 1.162,-1.008l0,-6.72c0,-0.49 -0.352,-0.899 -0.836,-0.983c-16.564,-2.938 -29.68,-15.794 -32.745,-32.072Z" style="fill:#37474f;fill-rule:nonzero;"/><path d="M42.684,56.424c0,7.21 5.847,13.054 13.055,13.054c7.211,0 13.054,-5.844 13.054,-13.054c0,-7.21 -5.843,-13.055 -13.054,-13.055c-7.208,0 -13.055,5.845 -13.055,13.055Z" style="fill:#78909c;fill-rule:nonzero;"/></svg>