<?xml version="1.0" encoding="UTF-8" standalone="no"?><!DOCTYPE svg PUBLIC "-//W3C//DTD SVG 1.1//EN" "http://www.w3.org/Graphics/SVG/1.1/DTD/svg11.dtd"><svg width="100%" height="100%" viewBox="0 0 113 113" version="1.1" xmlns="http://www.w3.org/2000/svg" xmlns:xlink="http://www.w3.org/1999/xlink" xml:space="preserve" xmlns:serif="http://www.serif.com/" style="fill-rule:evenodd;clip-rule:evenodd;stroke-linejoin:round;stroke-miterlimit:2;"><path d="M44.019,17.282c-0.61,0.967 -0.745,2.201 -0.272,3.327c0.846,2.009 1.249,4.122 1.249,6.211c0,1.628 -0.246,3.242 -0.748,4.781c-1.015,3.4 -3.164,6.456 -6.245,8.57l-30.809,21.162c-0.526,0.361 -0.646,0.871 -0.671,1.143c-0.025,0.273 0,0.795 0.449,1.246l15.52,15.517c0.259,0.26 0.594,0.41 0.942,0.446l1.012,-0.244l22.741,-14.89c1.514,-0.991 3.222,-1.532 4.945,-1.641c2.266,-0.143 4.559,0.461 6.515,1.803c0.517,0.356 0.977,0.739 1.405,1.167l0.108,0.111l0.648,-2.567c0.327,-0.831 0.766,-1.628 1.321,-2.367c2.156,-2.893 5.463,-4.701 9.065,-4.962l2.674,0.094c2.632,0.38 5.097,1.599 7.015,3.514l4.681,4.685c2.668,2.667 3.661,6.337 2.972,9.762l3,-0.164l2.957,0.535c1.925,0.588 3.727,1.636 5.222,3.133l0.237,0.236l0,5.655l-3.063,-3.063c-3.037,-3.037 -7.918,-3.385 -11.356,-0.807l-2.734,2.053c-4.092,3.067 -9.904,2.653 -13.521,-0.964l-12.056,-12.052c-2.083,-2.084 -5.381,-2.426 -7.845,-0.813l-22.74,14.886c-2.191,1.434 -5.123,1.132 -6.975,-0.72l-15.517,-15.517c-1.05,-1.048 -1.628,-2.458 -1.628,-3.926c0,-0.168 0.009,-0.341 0.025,-0.513c0.151,-1.649 1.022,-3.132 2.388,-4.07l30.809,-21.162c4.726,-3.246 6.541,-9.438 4.319,-14.721c-0.757,-1.806 -0.772,-3.744 -0.169,-5.467c-1.012,-1.113 -1.525,-2.519 -1.525,-3.932c0,-1.497 0.569,-2.996 1.71,-4.134c1.104,-1.104 2.572,-1.713 4.132,-1.71c1.562,0 3.03,0.609 4.135,1.713c0.257,0.256 0.482,0.532 0.686,0.825l0.751,-0.413c4.845,-2.666 10.963,-1.797 14.877,2.117l0.529,0.529l1.242,-1.243c0.782,-0.782 2.047,-0.782 2.827,0c0.782,0.782 0.782,2.049 0,2.831l-1.243,1.24l31.942,31.942l0,5.655l-6.43,-6.43l-1.377,1.377l7.807,7.809l0,5.656l-12.05,-12.05c-0.39,-0.39 -0.585,-0.902 -0.585,-1.415c0,-0.511 0.195,-1.021 0.585,-1.411l2.794,-2.794l-15.329,-15.326l-6.913,6.913l31.498,31.496l0,5.655l-39.403,-39.403l-1.791,-1.791l-6.71,-6.71l-7.266,-7.267l-0.763,0.864Z" style="fill:#263238;"/><path d="M71.484,60.084c-2.323,0.167 -4.461,1.283 -5.883,3.08l-0.269,0.289c-1.846,2.464 -1.635,5.934 0.464,8.159c0.213,-1.741 0.859,-3.443 1.966,-4.922c0.353,-0.476 0.754,-0.939 1.184,-1.369c2.248,-2.249 5.181,-3.454 8.162,-3.602c-1.207,-0.893 -2.628,-1.449 -4.117,-1.609l-1.507,-0.026Z" style="fill:#2a2e30;"/><path d="M71.324,23.482l-6.913,6.913l1.215,1.215l6.913,-6.913l-1.215,-1.215Z" style="fill:#2a2e30;"/><path d="M67.282,19.44l-6.912,6.913l1.215,1.215l6.912,-6.913l-1.215,-1.215Z" style="fill:#2a2e30;"/><path d="M63.239,15.397l-6.913,6.913l1.216,1.212l6.912,-6.913l-1.215,-1.212Z" style="fill:#2a2e30;"/><path d="M56.024,11.502c-1.439,-0.039 -2.896,0.282 -4.297,1.032l-0.023,0.009l-3.317,1.824l5.113,5.113l6.74,-6.741l-0.445,-0.196l-1.589,-0.699l-2.182,-0.342Z" style="fill:#2a2e30;"/><path d="M42.902,11.45c-0.475,0.475 -0.628,1.139 -0.481,1.748c0.308,-0.24 0.633,-0.462 0.988,-0.655l2.054,-1.133c-0.341,-0.323 -0.786,-0.499 -1.257,-0.499c-0.493,0 -0.957,0.192 -1.304,0.539Z" style="fill:#2a2e30;"/><path d="M80.322,46.305l-11.868,-11.867l6.913,-6.913l15.329,15.326l-2.794,2.794c-0.39,0.39 -0.585,0.9 -0.585,1.411c0,0.513 0.195,1.025 0.585,1.415l11.937,11.937l0.113,0.113l0,5.413l-5.025,-5.025l-2.87,-2.87l-11.735,-11.734Z" style="fill:#90a4ae;"/><path d="M88.536,74.15c0.689,-3.425 -0.304,-7.095 -2.972,-9.762l-4.681,-4.685c-1.918,-1.915 -4.383,-3.134 -7.015,-3.514l-2.674,-0.094c-0.9,0.065 -1.782,0.227 -2.633,0.478l-2.442,1.016c-1.546,0.846 -2.912,2.022 -3.99,3.468c-0.555,0.739 -0.994,1.536 -1.321,2.367l-0.648,2.567l-0.108,-0.111c-2.134,-2.133 -5.048,-3.151 -7.92,-2.97c-1.723,0.109 -3.431,0.65 -4.945,1.641l-22.741,14.89l-1.012,0.244c-0.348,-0.036 -0.683,-0.186 -0.942,-0.446l-15.52,-15.517c-0.449,-0.451 -0.474,-0.973 -0.449,-1.246c0.025,-0.272 0.145,-0.782 0.671,-1.143l30.809,-21.162c0.562,-0.386 1.094,-0.803 1.587,-1.244l1.397,-1.408c1.514,-1.73 2.625,-3.753 3.261,-5.918c0.502,-1.539 0.748,-3.153 0.748,-4.781c0,-2.089 -0.403,-4.202 -1.249,-6.211c-0.631,-1.502 -0.181,-3.193 1.035,-4.191l7.266,7.267l6.71,6.71l1.791,1.791l38.722,38.722l0.681,0.681l0,6.301l-0.237,-0.236c-1.495,-1.497 -3.297,-2.545 -5.222,-3.133l-2.957,-0.535l-3,0.164Z" style="fill:#37474f;"/><path d="M52.72,33.242c-1.182,-0.114 -2.402,0.17 -3.442,0.872l-36.794,24.848c-0.326,0.22 -0.622,0.473 -0.886,0.753l-0.69,0.916c-0.39,0.657 -0.636,1.4 -0.712,2.182c-0.018,0.17 -0.025,0.338 -0.025,0.508c0,1.384 0.545,2.717 1.539,3.707l8.787,8.786c1.753,1.753 4.527,2.037 6.601,0.674l37.177,-24.461c1.327,-0.873 2.179,-2.276 2.34,-3.853c0.158,-1.579 -0.389,-3.126 -1.512,-4.247l-9.17,-9.173c-0.444,-0.444 -0.951,-0.794 -1.496,-1.046l-1.717,-0.466Z" style="fill:#444749;"/><path d="M68.561,56.573l-2.442,1.016c1.547,-0.846 3.274,-1.364 5.075,-1.494l-2.633,0.478Z" style="fill:#444749;"/><path d="M44.996,26.82c0,1.628 -0.246,3.242 -0.748,4.781c0.303,-0.929 0.513,-1.885 0.631,-2.839l0.117,-1.942Z" style="fill:#444749;"/><path d="M57.169,63.861c-1.575,-0.737 -3.314,-1.06 -5.037,-0.951c2.304,-0.146 4.635,0.481 6.553,1.825l-1.516,-0.874Z" style="fill:#444749;"/><path d="M54.437,33.708c0.545,0.252 1.052,0.602 1.496,1.046l9.17,9.173c1.123,1.121 1.67,2.668 1.512,4.247c-0.161,1.577 -1.013,2.98 -2.34,3.853l-37.177,24.461c-0.519,0.341 -1.081,0.578 -1.66,0.716l-1.761,0.116c-1.172,-0.12 -2.304,-0.629 -3.18,-1.506l-8.787,-8.786c-0.685,-0.683 -1.157,-1.528 -1.375,-2.477c-0.111,-0.375 -0.164,-0.8 -0.164,-1.23c0,-0.17 0.007,-0.338 0.025,-0.508c0.076,-0.782 0.322,-1.525 0.712,-2.182l0.69,-0.916c0.264,-0.28 0.56,-0.533 0.886,-0.753l36.794,-24.848c1.04,-0.702 2.26,-0.986 3.442,-0.872l1.717,0.466Z" style="fill:#2a2e30;"/><path d="M52.338,37.222c-0.281,-0.027 -0.572,0.041 -0.819,0.209l-36.797,24.847c-0.424,0.286 -0.523,0.699 -0.544,0.916c-0.022,0.219 -0.004,0.643 0.359,1.007l8.786,8.786c0.209,0.209 0.479,0.331 0.758,0.359l0.817,-0.2l37.182,-24.459c0.43,-0.287 0.535,-0.698 0.556,-0.92l0.006,-0.13c0,-0.236 -0.061,-0.581 -0.365,-0.882l-9.175,-9.173l-0.764,-0.36Z" style="fill:#2a2e30;"/><path d="M10.908,60.631c0.39,-0.658 0.924,-1.229 1.576,-1.669l-0.886,0.753l-0.69,0.916Z" style="fill:#2a2e30;"/><path d="M50.946,33.372c0.584,-0.144 1.185,-0.187 1.774,-0.13l-1.774,0.13c-0.583,0.145 -1.148,0.391 -1.668,0.742l1.668,-0.742Z" style="fill:#2a2e30;"/><path d="M53.102,37.582l9.175,9.173c0.304,0.301 0.365,0.646 0.365,0.882l-0.006,0.13c-0.021,0.222 -0.126,0.633 -0.556,0.92l-37.182,24.459l-0.817,0.2c-0.279,-0.028 -0.549,-0.15 -0.758,-0.359l-8.786,-8.786c-0.363,-0.364 -0.381,-0.788 -0.359,-1.007c0.021,-0.217 0.12,-0.63 0.544,-0.916l36.797,-24.847c0.247,-0.168 0.538,-0.236 0.819,-0.209l0.764,0.36Z" style="fill:#78909c;"/><path d="M37.117,49.393c-1.148,0.221 -2.244,0.776 -3.131,1.663c-1.056,1.056 -1.675,2.432 -1.739,3.896l-0.039,0.395c0,0.671 0.108,1.326 0.335,1.914c0.155,0.509 0.38,0.986 0.681,1.452l0.762,0.925c1.147,1.148 2.671,1.778 4.291,1.778l1.193,-0.116c1.166,-0.231 2.238,-0.801 3.099,-1.662c0.575,-0.572 1.019,-1.239 1.32,-1.966c0.302,-0.729 0.458,-1.512 0.458,-2.325c0,-1.621 -0.631,-3.144 -1.778,-4.291c-0.887,-0.887 -1.983,-1.442 -3.132,-1.663l-1.16,-0.111l-1.16,0.111Z" style="fill:#7ba4c5;"/><path d="M72.991,60.11c1.489,0.16 2.91,0.716 4.117,1.609c-2.169,0.107 -4.312,0.775 -6.159,2.003c-0.727,0.451 -1.39,0.986 -2.003,1.599c-0.43,0.43 -0.831,0.893 -1.184,1.369c-0.554,0.739 -0.992,1.535 -1.319,2.363l-0.647,2.559c-2.099,-2.225 -2.31,-5.695 -0.464,-8.159l0.269,-0.289c1.422,-1.797 3.56,-2.913 5.883,-3.08l1.507,0.026Z" style="fill:#90a4ae;"/><path d="M65.098,70.724c-0.2,-0.307 -0.371,-0.628 -0.52,-0.979l0.52,0.979c0.208,0.319 0.438,0.613 0.698,0.888l-0.698,-0.888Z" style="fill:#75797a;"/><path d="M74.891,62.028c-1.393,0.323 -2.738,0.886 -3.942,1.694c1.847,-1.228 3.99,-1.896 6.159,-2.003l-2.217,0.309Z" style="fill:#75797a;"/><path d="M64.736,64.42c-0.165,0.329 -0.298,0.668 -0.406,1.035l0.406,-1.035c0.171,-0.342 0.368,-0.662 0.596,-0.967l-0.596,0.967Z" style="fill:#75797a;"/><path d="M32.247,54.952c0.064,-1.464 0.683,-2.84 1.739,-3.896c2.365,-2.366 6.217,-2.366 8.583,0c1.147,1.147 1.778,2.67 1.778,4.291c0,0.813 -0.156,1.596 -0.458,2.325c-0.301,0.727 -0.745,1.394 -1.32,1.966c-1.147,1.148 -2.671,1.778 -4.292,1.778c-0.81,0 -1.596,-0.157 -2.323,-0.458l-1.041,-0.558c-0.33,-0.22 -0.64,-0.475 -0.927,-0.762l-0.762,-0.925c-0.294,-0.44 -0.528,-0.914 -0.681,-1.452c-0.227,-0.588 -0.335,-1.243 -0.335,-1.914l0.039,-0.395Z" style="fill:#2a2e30;"/><path d="M38.279,53.278c-0.266,0 -0.531,0.051 -0.781,0.151l-0.685,0.453c-0.391,0.395 -0.606,0.915 -0.606,1.465c0,0.554 0.215,1.073 0.606,1.465c0.391,0.39 0.911,0.606 1.464,0.606l0.794,-0.157c0.248,-0.102 0.475,-0.254 0.671,-0.449c0.39,-0.392 0.606,-0.911 0.606,-1.465c0,-0.55 -0.216,-1.07 -0.606,-1.465l-0.684,-0.453l-0.779,-0.151Z" style="fill:#2a2e30;"/><path d="M39.47,61.3c0.784,-0.155 1.525,-0.464 2.172,-0.9l0.927,-0.762c-1.147,1.148 -2.671,1.778 -4.292,1.778l1.193,-0.116Z" style="fill:#2a2e30;"/><path d="M33.986,59.638c-0.574,-0.572 -1.018,-1.239 -1.319,-1.967l0.557,1.042l0.762,0.925Z" style="fill:#2a2e30;"/><path d="M32.667,53.024c-0.254,0.612 -0.405,1.266 -0.42,1.928l0.078,-0.798l0.342,-1.13Z" style="fill:#2a2e30;"/><path d="M35.992,49.725c-0.365,0.148 -0.719,0.333 -1.055,0.555l1.055,-0.555c0.362,-0.146 0.734,-0.256 1.125,-0.332l-1.125,0.332Z" style="fill:#2a2e30;"/><path d="M40.562,49.725c-0.361,-0.146 -0.733,-0.256 -1.125,-0.332l-1.16,-0.111c1.166,0 2.332,0.332 3.341,0.998l-1.056,-0.555Z" style="fill:#2a2e30;"/><path d="M99.952,52.109l0,2.756l-7.807,-7.809l1.377,-1.377l6.43,6.43Z" style="fill:#90a4ae;"/><path d="M39.058,53.429c0.249,0.101 0.483,0.252 0.684,0.453c0.39,0.395 0.606,0.915 0.606,1.465c0,0.554 -0.216,1.073 -0.606,1.465c-0.196,0.195 -0.423,0.347 -0.671,0.449l-0.794,0.157c-0.553,0 -1.073,-0.216 -1.464,-0.606c-0.391,-0.392 -0.606,-0.911 -0.606,-1.465c0,-0.55 0.215,-1.07 0.606,-1.465c0.404,-0.402 0.935,-0.604 1.466,-0.604l0.779,0.151Z" style="fill:#90a4ae;"/><path d="M38.279,53.278c-0.531,0 -1.062,0.202 -1.466,0.604l0.685,-0.453l0.781,-0.151Z" style="fill:#79c7ca;"/><path d="M72.539,24.697l-6.913,6.913l-1.215,-1.215l6.913,-6.913l1.215,1.215Z" style="fill:#90a4ae;"/><path d="M68.497,20.655l-6.912,6.913l-1.215,-1.215l6.912,-6.913l1.215,1.215Z" style="fill:#90a4ae;"/><path d="M64.454,16.609l-6.912,6.913l-1.216,-1.212l6.913,-6.913l1.215,1.212Z" style="fill:#90a4ae;"/><path d="M58.206,11.844c0.709,0.207 1.394,0.506 2.034,0.895l-6.74,6.741l-5.113,-5.113l3.317,-1.824c1.35,-0.742 2.844,-1.081 4.32,-1.041l2.182,0.342Z" style="fill:#90a4ae;"/><path d="M56.024,11.502c-1.476,-0.04 -2.97,0.299 -4.32,1.041l2.112,-0.814l2.208,-0.227Z" style="fill:#75797a;"/><path d="M106.914,5.054c1.742,0.413 2.101,1.201 2.182,2.601l0,95.667c-0.158,2.714 -5.049,3.999 -5.282,0l0,-95.667c0.092,-1.576 1.376,-2.802 3.1,-2.601Z" style="fill:#263238;"/></svg>