<?xml version="1.0" encoding="UTF-8" standalone="no"?><!DOCTYPE svg PUBLIC "-//W3C//DTD SVG 1.1//EN" "http://www.w3.org/Graphics/SVG/1.1/DTD/svg11.dtd"><svg width="100%" height="100%" viewBox="0 0 512 512" version="1.1" xmlns="http://www.w3.org/2000/svg" xmlns:xlink="http://www.w3.org/1999/xlink" xml:space="preserve" xmlns:serif="http://www.serif.com/" style="fill-rule:evenodd;clip-rule:evenodd;stroke-linejoin:round;stroke-miterlimit:2;"><g><path d="M478.605,250.869l-445.212,0c24.735,-22.806 49.468,-34.209 74.202,-57.016l296.807,0c24.735,22.806 49.469,34.209 74.203,57.016Z" style="fill:#395087;fill-rule:nonzero;"/><path d="M354.981,11.558c-19.877,14.255 -56.406,23.813 -98.185,23.813c-41.933,0 -78.574,-9.628 -98.402,-23.968l-1.328,0c-16.489,57.016 -32.979,125.434 -49.468,182.45l296.807,0c-16.476,-56.964 -32.95,-125.331 -49.424,-182.295Z" style="fill:#395087;fill-rule:nonzero;"/></g><g><path d="M133.918,330.69l67.415,0c14.447,0 26.159,-11.712 26.159,-26.159l0,-53.663l-119.733,0l0,53.663c0,14.447 11.712,26.159 26.159,26.159Z" style="fill:#efefef;fill-rule:nonzero;"/><path d="M310.666,330.69l67.415,0c14.447,0 26.159,-11.712 26.159,-26.159l0,-53.663l-119.733,0l0,53.663c0,14.447 11.712,26.159 26.159,26.159Z" style="fill:#efefef;fill-rule:nonzero;"/></g><g><path d="M275.385,376.303l203.22,0l-34.209,124.294l-191.818,0l22.807,-124.294Z" style="fill:#76cef5;fill-rule:nonzero;"/><path d="M33.393,376.303l204.269,0l22.806,124.294l-192.865,0l-34.21,-124.294Z" style="fill:#76cef5;fill-rule:nonzero;"/></g><g><path d="M33.393,262.272l62.962,0l0,42.26c0,20.711 16.85,37.562 37.562,37.562l67.415,0c20.713,0 37.562,-16.85 37.562,-37.562l0,-42.26l34.209,0l0,42.26c0,20.711 16.85,37.562 37.562,37.562l67.415,0c20.713,0 37.562,-16.85 37.562,-37.562l0,-42.26l62.962,0c4.697,0 8.913,-2.879 10.621,-7.254c1.709,-4.374 0.561,-9.349 -2.892,-12.532c-12.954,-11.945 -60.874,-45.085 -71.868,-54.9c-7.911,-27.556 -40.255,-150.578 -48.532,-179.194c-1.029,-3.558 -3.722,-6.394 -7.222,-7.606c-3.501,-1.212 -7.371,-0.65 -10.379,1.507c-18.644,13.371 -53.72,21.676 -91.541,21.676c-37.979,0 -73.124,-8.355 -91.719,-21.805c-1.942,-1.407 -4.28,-2.164 -6.68,-2.164l-1.328,0c-5.078,0 -9.543,3.357 -10.954,8.235c-8.283,28.641 -40.658,151.768 -48.577,179.351c-10.995,9.816 -58.914,42.956 -71.868,54.9c-3.453,3.184 -4.6,8.158 -2.892,12.532c1.708,4.374 5.923,7.254 10.62,7.254Zm182.695,42.26c0,8.136 -6.62,14.756 -14.756,14.756l-67.415,0c-8.136,0 -14.756,-6.62 -14.756,-14.756l0,-42.26l96.927,0l0,42.26Zm176.749,0c0,8.136 -6.62,14.756 -14.756,14.756l-67.415,0c-8.136,0 -14.756,-6.62 -14.756,-14.756l0,-42.26l96.927,0l0,42.26Zm-228.69,-276.375c23.193,11.794 56.561,18.618 92.647,18.618c35.345,0 68.122,-6.558 91.253,-17.923c6.895,24.565 26.171,97.881 28.981,108.456l-75.933,0c-6.298,0 -11.403,5.105 -11.403,11.403c0,6.298 5.105,11.403 11.403,11.403l82.052,0c2.05,7.555 4.103,15.029 6.152,22.335l-266.601,0c2.05,-7.306 4.103,-14.781 6.153,-22.335l79.881,0c6.298,0 11.403,-5.105 11.403,-11.403c0,-6.298 -5.105,-11.403 -11.403,-11.403l-73.761,0c2.817,-10.601 22.224,-84.409 29.176,-109.151Zm-52.167,177.099l288.037,0c11.83,10.459 42.424,31.619 46.064,34.209l-380.164,0c3.639,-2.59 34.235,-23.75 46.063,-34.209Z" style="fill:#263238;fill-rule:nonzero;"/><path d="M254.344,160.115l1.14,0c6.298,0 11.403,-5.105 11.403,-11.403c0,-6.298 -5.105,-11.403 -11.403,-11.403l-1.14,0c-6.298,0 -11.403,5.105 -11.403,11.403c-0.001,6.297 5.105,11.403 11.403,11.403Z" style="fill:#263238;fill-rule:nonzero;"/><circle cx="199.611" cy="438.45" r="11.403" style="fill:#263238;"/><circle cx="312.502" cy="438.45" r="11.403" style="fill:#263238;"/><path d="M478.605,364.9l-203.22,0c-5.504,0 -10.223,3.932 -11.216,9.345l-7.646,41.667l-7.646,-41.667c-0.993,-5.414 -5.712,-9.345 -11.216,-9.345l-204.268,0c-3.559,0 -6.914,1.661 -9.07,4.492c-2.156,2.83 -2.869,6.505 -1.925,9.937l34.209,124.294c1.362,4.948 5.862,8.377 10.995,8.377l376.793,0c5.133,0 9.632,-3.429 10.995,-8.377l34.21,-124.295c0.944,-3.431 0.233,-7.106 -1.925,-9.937c-2.157,-2.83 -5.511,-4.491 -9.07,-4.491Zm-430.246,22.806l179.802,0l18.621,101.488l-170.49,0l-27.933,-101.488Zm387.348,101.488l-165.738,0l-1.853,-10.096l16.769,-91.391l178.755,0l-27.933,101.487Z" style="fill:#263238;fill-rule:nonzero;"/></g></svg>