<?xml version="1.0" encoding="UTF-8" standalone="no"?><!DOCTYPE svg PUBLIC "-//W3C//DTD SVG 1.1//EN" "http://www.w3.org/Graphics/SVG/1.1/DTD/svg11.dtd"><svg width="100%" height="100%" viewBox="0 0 512 512" version="1.1" xmlns="http://www.w3.org/2000/svg" xmlns:xlink="http://www.w3.org/1999/xlink" xml:space="preserve" xmlns:serif="http://www.serif.com/" style="fill-rule:evenodd;clip-rule:evenodd;stroke-linejoin:round;stroke-miterlimit:2;"><path d="M188.621,390.805l-102.608,0l0,-42.006l90.53,0l60.455,-121.939l36.307,21.127l-66.531,132.379c-3.76,6.464 -10.674,10.439 -18.153,10.439Z" style="fill:#90a4ae;fill-rule:nonzero;"/><g><path d="M150.912,90.302l-37.887,104.096c-2.36,6.484 0.983,13.652 7.467,16.012l297.104,108.137l42.16,-115.836l-308.844,-112.409Z" style="fill:#efefef;fill-rule:nonzero;"/><path d="M197.063,188.734l-72.387,-26.346l37.032,-101.745c2.36,-6.484 9.528,-9.826 16.012,-7.467l323.779,117.846l-120.785,84.556l-100.21,-36.474l-83.441,-30.37Z" style="fill:#efefef;fill-rule:nonzero;"/></g><path d="M431.76,279.638l43.421,15.803l23.345,-64.144l-43.421,-15.803l-23.345,64.144Z" style="fill:#90a4ae;"/><g><rect x="52.507" y="307.315" width="47.257" height="131.269" style="fill:#ffc107;"/><path d="M10.501,286.316l22.579,0c10.729,0 19.428,8.698 19.428,19.428l0,134.419c0,10.729 -8.698,19.428 -19.428,19.428l-22.579,0l0,-173.275Z" style="fill:#ffc107;fill-rule:nonzero;"/></g><circle cx="186.401" cy="364.906" r="31.504" style="fill:#efefef;"/><g><path d="M502.11,221.442l-33.552,-12.212l1.065,-2.926c0.023,-0.062 0.037,-0.126 0.058,-0.188l37.841,-26.49c3.208,-2.246 4.9,-6.091 4.389,-9.973c-0.51,-3.882 -3.139,-7.159 -6.82,-8.498l-323.781,-117.848c-5.772,-2.1 -12.016,-1.828 -17.582,0.768c-5.567,2.596 -9.788,7.204 -11.89,12.975l-48.683,133.756c-2.1,5.772 -1.828,12.016 0.768,17.582c2.596,5.567 7.204,9.788 12.975,11.89l94.575,34.423l-34.325,69.235c-9.272,2.093 -17.394,7.251 -23.229,14.363l-43.654,0l0,-30.979c0,-5.8 -4.702,-10.501 -10.501,-10.501l-38.115,0c-3.807,-12.157 -15.174,-21.003 -28.569,-21.003l-22.579,0c-5.8,0 -10.501,4.702 -10.501,10.501l0,173.273c0,5.8 4.702,10.501 10.501,10.501l22.579,0c13.396,0 24.763,-8.846 28.569,-21.003l38.115,0c5.8,0 10.501,-4.701 10.501,-10.501l0,-37.28l55.22,0c6.164,3.555 13.303,5.6 20.916,5.6c23.162,0 42.006,-18.844 42.006,-42.006c0,-1.292 -0.067,-2.569 -0.183,-3.831l42.602,-84.768l143.176,52.112c1.161,0.423 2.378,0.633 3.592,0.633c1.519,0 3.035,-0.33 4.439,-0.984c2.524,-1.177 4.478,-3.308 5.429,-5.926l10.566,-29.03l33.551,12.212c1.161,0.423 2.378,0.633 3.592,0.633c1.519,0 3.035,-0.33 4.439,-0.984c2.523,-1.177 4.478,-3.308 5.429,-5.926l23.346,-64.143c1.985,-5.448 -0.825,-11.474 -6.275,-13.457Zm-460.104,218.72c0,4.922 -4.004,8.926 -8.926,8.926l-12.077,0l0,-152.271l12.077,0c4.922,0 8.926,4.004 8.926,8.926l0,134.419Zm47.257,-12.076l-26.254,0l0,-110.266l26.254,0l0,110.266Zm97.138,-42.182c-11.581,0 -21.003,-9.422 -21.003,-21.003c0,-11.581 9.422,-21.003 21.003,-21.003c11.581,0 21.003,9.422 21.003,21.003c0,11.581 -9.422,21.003 -21.003,21.003Zm-76.135,-26.603l34.514,0c-0.246,1.834 -0.384,3.701 -0.384,5.6c0,5.437 1.049,10.63 2.937,15.403l-37.067,0l0,-21.003Zm106.888,-22.973c-4.669,-5.022 -10.549,-8.897 -17.17,-11.166l31.35,-63.234l19.623,7.142l-33.803,67.258Zm194.165,-31.241l-287.237,-104.545c-0.641,-0.233 -0.964,-0.689 -1.124,-1.029c-0.159,-0.34 -0.299,-0.881 -0.066,-1.522l8.06,-22.142l62.518,22.755c5.448,1.983 11.476,-0.825 13.46,-6.277c1.984,-5.45 -0.826,-11.476 -6.277,-13.46l-62.519,-22.755l33.441,-91.876c0.233,-0.641 0.689,-0.965 1.029,-1.124c0.34,-0.159 0.881,-0.299 1.522,-0.066l304.821,110.945l-99.78,69.85l-95.075,-34.604c-5.448,-1.985 -11.477,0.826 -13.459,6.277c-1.985,5.45 0.825,11.476 6.277,13.46l100.211,36.474c1.166,0.424 2.382,0.633 3.59,0.633c2.127,0 4.234,-0.646 6.024,-1.899l52.966,-37.079l-12.802,35.176l-15.58,42.808Zm57.577,-23.095l-23.683,-8.62l16.162,-44.407l23.684,8.62l-16.163,44.407Z" style="fill:#263238;fill-rule:nonzero;"/><path d="M245.15,195.061l-1.529,-0.557c-5.45,-1.984 -11.476,0.826 -13.46,6.277c-1.984,5.45 0.826,11.476 6.277,13.46l1.529,0.557c1.186,0.432 2.399,0.636 3.59,0.636c4.289,0 8.317,-2.648 9.869,-6.913c1.984,-5.45 -0.826,-11.476 -6.276,-13.46Z" style="fill:#231f20;fill-rule:nonzero;"/></g></svg>