<?xml version="1.0" encoding="UTF-8" standalone="no"?><!DOCTYPE svg PUBLIC "-//W3C//DTD SVG 1.1//EN" "http://www.w3.org/Graphics/SVG/1.1/DTD/svg11.dtd"><svg width="100%" height="100%" viewBox="0 0 513 513" version="1.1" xmlns="http://www.w3.org/2000/svg" xmlns:xlink="http://www.w3.org/1999/xlink" xml:space="preserve" xmlns:serif="http://www.serif.com/" style="fill-rule:evenodd;clip-rule:evenodd;stroke-linejoin:round;stroke-miterlimit:2;"><path d="M256,11.252c-66.322,37.074 -130.928,57.696 -198.1,61.731c-6.877,73.045 -9.627,146.382 -8.252,219.661c1.865,72.532 57.136,124.555 107.837,158.445c51.369,33.891 98.167,49.65 98.516,49.661c0.349,-0.011 47.147,-15.77 98.516,-49.661c50.701,-33.89 105.972,-85.913 107.837,-158.445c1.375,-73.278 -1.375,-146.615 -8.252,-219.661c-67.173,-4.035 -131.779,-24.658 -198.102,-61.731Z" style="fill:#395087;fill-rule:nonzero;"/><circle cx="256.002" cy="256.001" r="154.726" style="fill:#76cef5;"/><g><path d="M465.305,71.929c-0.52,-5.525 -4.989,-9.846 -10.528,-10.178c-64.366,-3.867 -127.59,-23.598 -193.286,-60.321c-3.412,-1.906 -7.57,-1.906 -10.982,0c-65.695,36.723 -128.918,56.454 -193.285,60.32c-5.539,0.332 -10.008,4.653 -10.528,10.178c-6.886,73.143 -9.677,147.474 -8.298,221.004c1.598,62.174 39.56,118.534 112.888,167.55c27.231,17.965 53.078,30.8 69.968,38.404c9.72,4.375 17.547,7.512 22.401,9.374c9.55,3.662 10.315,3.685 11.99,3.738c0.117,0.003 0.59,0.003 0.709,0c1.674,-0.053 2.439,-0.077 11.99,-3.738c4.853,-1.861 12.681,-4.997 22.4,-9.374c16.889,-7.604 42.737,-20.439 70.024,-38.442c73.272,-48.977 111.234,-105.337 112.834,-167.589c1.38,-73.454 -1.412,-147.784 -8.297,-220.926Zm-14.201,220.425c-1.4,54.442 -36.001,104.701 -102.784,149.342c-42.309,27.914 -81.188,43.083 -92.319,47.14c-11.13,-4.057 -50.004,-19.222 -92.262,-47.102c-66.84,-44.679 -101.441,-94.938 -102.84,-149.301c-1.303,-69.439 1.165,-139.671 7.336,-208.91c62.67,-5.234 124.262,-24.728 187.767,-59.414c63.506,34.686 125.098,54.179 187.767,59.413c6.169,69.239 8.636,139.469 7.335,208.832Z" style="fill:#231f20;fill-rule:nonzero;"/><path d="M256,90.022c-91.521,0 -165.979,74.458 -165.979,165.979c0,91.521 74.459,165.979 165.979,165.979c91.52,0 165.979,-74.458 165.979,-165.979c0,-91.521 -74.458,-165.979 -165.979,-165.979Zm0,309.453c-79.112,0 -143.473,-64.362 -143.473,-143.473c0,-79.111 64.362,-143.474 143.473,-143.474c79.111,0 143.473,64.362 143.473,143.473c0,79.111 -64.361,143.474 -143.473,143.474Z" style="fill:#231f20;fill-rule:nonzero;"/><path d="M360.652,290.852c-5.662,-2.562 -12.33,-0.052 -14.892,5.609c-15.952,35.235 -51.185,58.002 -89.76,58.002c-6.215,0 -11.253,5.038 -11.253,11.253c0,6.215 5.038,11.253 11.253,11.253c47.392,0 90.673,-27.957 110.262,-71.224c2.563,-5.661 0.053,-12.329 -5.61,-14.893Z" style="fill:#231f20;fill-rule:nonzero;"/><path d="M354.459,256.891c-0.052,6.215 4.943,11.296 11.158,11.346l0.097,0c6.17,0 11.199,-4.976 11.251,-11.158l0.005,-1.079c0,-6.215 -5.038,-11.253 -11.253,-11.253c-6.215,0 -11.253,5.038 -11.253,11.253l-0.005,0.891Z" style="fill:#231f20;fill-rule:nonzero;"/><path d="M256.502,304.093l69.017,-69.017c4.394,-4.394 4.395,-11.52 0,-15.914c-4.394,-4.394 -11.52,-4.394 -15.914,0l-61.061,61.06l-19.144,-19.143c-4.394,-4.394 -11.52,-4.394 -15.914,0c-4.394,4.394 -4.394,11.52 0,15.914l27.1,27.1c2.198,2.198 5.077,3.296 7.957,3.296c2.88,0 5.762,-1.099 7.959,-3.296Z" style="fill:#231f20;fill-rule:nonzero;"/></g></svg>